<?xml version="1.0" encoding="UTF-8"?>
<svg width="112px" height="112px" viewBox="0 0 112 112" version="1.1" xmlns="http://www.w3.org/2000/svg" xmlns:xlink="http://www.w3.org/1999/xlink">
    <title>Aragon</title>
    <defs>
        <linearGradient x1="50%" y1="34.9912308%" x2="50%" y2="101.314615%" id="linearGradient-1">
            <stop stop-color="#01E8F8" offset="0%"></stop>
            <stop stop-color="#01E8F8" stop-opacity="0" offset="100%"></stop>
        </linearGradient>
        <linearGradient x1="50.0940368%" y1="22.3286601%" x2="53.5705548%" y2="117.167554%" id="linearGradient-2">
            <stop stop-color="#01E8F7" offset="0%"></stop>
            <stop stop-color="#00C2FF" offset="100%"></stop>
        </linearGradient>
        <linearGradient x1="32.3556593%" y1="23.1978225%" x2="74.2039583%" y2="78.2067823%" id="linearGradient-3">
            <stop stop-color="#01E8F7" offset="0%"></stop>
            <stop stop-color="#00B3EC" offset="100%"></stop>
        </linearGradient>
        <linearGradient x1="50.427777%" y1="32.6587229%" x2="53.1723946%" y2="102.955007%" id="linearGradient-4">
            <stop stop-color="#01E8F7" offset="0%"></stop>
            <stop stop-color="#00C2FF" offset="100%"></stop>
        </linearGradient>
    </defs>
    <g id="Aragon" stroke="none" stroke-width="1" fill="none" fill-rule="evenodd">
        <g id="5ee329a98d47d50a5f402404_Group-1831">
            <circle id="椭圆形" fill-opacity="0.05" fill="url(#linearGradient-1)" fill-rule="nonzero" cx="56" cy="56" r="56"></circle>
            <path d="M98.981936,51.4693195 C99.3517652,43.2245796 93.988012,37.7550841 87.9346217,34 L84,58.816269 C86.7239436,58.6530504 88.0556567,59.7631834 88.5399607,60.2855885 C89.1452997,60.938639 90.6587293,62.8979664 88.8427122,66 C92.6259582,65.3467735 98.5353529,61.4284708 98.981936,51.4693195 Z" id="路径" fill="url(#linearGradient-2)" fill-rule="nonzero"></path>
            <path d="M45.7120332,24.2117399 L40.7786375,19.2413935 C48.2052046,18.3327426 67.8008144,19.4979945 86.7705444,31.4268258 C87.0887446,32.7094847 86.7705444,34.633473 86.7705444,34.633473 L88.3618901,35.4352645 C89.7411023,37.4126825 92.0857803,43.0350789 90.4307946,49.7049742 C88.7756365,56.3750425 85.9216658,59.2182293 84.7016399,59.806129 C82.1553489,59.806129 77.8267921,61.2812386 76.4263666,67.8228335 C75.025941,74.3646013 72.3416771,75.7861082 71.1745983,75.6792488 L43.1657422,76 L24.7054773,65.0972266 L22,42.4898883 L27.2515958,35.4352645 L36.6410008,27.7391383 L43.3249285,25.0135314 L45.7120332,24.2117399 Z M78.791913,33.5507 C77.5568825,34.8404483 76.4018764,35.4592992 76.0722935,35.6271965 C68.8602743,34.0889741 66.2618985,30.3483756 66.2618985,30.3483756 C73.0646554,30.3061852 79.2046246,31.9284426 83.6968518,34.672724 C83.6968518,34.672724 81.2650783,33.8826905 78.791913,33.5507 Z" id="形状" fill="url(#linearGradient-3)"></path>
            <path d="M76.5438845,67.6275112 C71.5962944,70.0539448 65.7303298,71.4586133 59.4406459,71.4586133 C41.7612873,71.4586133 27.429569,60.3599389 27.429569,46.6689062 C27.429569,36.5547415 35.2512004,27.8550766 46.4660371,24 C25.138724,25.2266702 8,42.3477914 8,63.4738735 C8,87.8548056 29.7473387,108 56.5741987,108 C76.6063637,108 93.2812231,96.3933752 102,80.8645794 C90.0034835,83.5607701 75.8024191,78.4350411 76.5438845,67.6275112 Z" id="路径" fill="url(#linearGradient-4)"></path>
        </g>
    </g>
</svg>