<?xml version="1.0" encoding="UTF-8"?>
<svg width="24px" height="20px" viewBox="0 0 24 20" version="1.1" xmlns="http://www.w3.org/2000/svg" xmlns:xlink="http://www.w3.org/1999/xlink">
    <title>discord</title>
    <g id="discord" stroke="none" stroke-width="1" fill="none" fill-rule="evenodd">
        <g transform="translate(0.000000, 1.661905)" fill-rule="nonzero">
            <path d="M2.98291294,2.35145315 C5.96582587,0.237451277 8.73067535,0.338872656 8.73067535,0.338872656 L8.95362083,0.552808378 C5.30349878,1.40062772 3.64849471,2.98850619 3.64849471,2.98850619 C3.817738,2.95364259 11.1879577,-1.18720216 20.1187958,3.09309699 C20.1187958,3.09309699 18.460537,1.60822461 15.0349878,0.657399176 L15.3376729,0.367397419 C15.8112286,0.368982128 18.3173312,0.454556417 20.9991863,2.36413082 C20.9991863,2.36413082 24,7.35596434 24,13.4887884 C23.9007323,13.3715199 22.1383238,16.1289136 17.6029292,16.2239962 C17.6029292,16.2239962 16.8348251,15.3777616 16.2880391,14.6392871 C18.9406021,13.8976433 19.9332791,12.4143556 19.9332791,12.4143556 C14.7697315,15.5806043 10.2441009,15.0861751 4.82994304,12.9468179 C4.77949552,12.9468179 4.75671277,12.9246319 4.73067535,12.8992766 L4.73067535,12.8897683 C4.70463792,12.8659977 4.68185517,12.8422271 4.63140765,12.8422271 L4.53376729,12.8422271 C4.20179007,12.6298761 3.98047193,12.5252853 3.98047193,12.5252853 C3.98047193,12.5252853 4.97152156,14.0085729 7.51830757,14.7502168 C6.84947111,15.4934453 6.18714402,16.3380952 6.18714402,16.3380952 C1.65337673,16.2335044 0,13.4761107 0,13.4761107 C0,7.33377841 2.98291294,2.35145315 2.98291294,2.35145315 L2.98291294,2.35145315 Z" id="形状" fill="#5C6BC0"></path>
            <path d="M15,11.3380952 C16.1023256,11.3380952 17,10.440899 17,9.33435692 C17,8.2352915 16.1069767,7.33809524 15,7.33809524 L15,7.34258122 C13.9023256,7.34258122 13.0031008,8.23678683 13,9.34332888 C13,10.440899 13.8976744,11.3380952 15,11.3380952 Z" id="路径" fill="#FFFFFF"></path>
            <path d="M9,11.3380952 C10.1023256,11.3380952 11,10.440899 11,9.33435692 C11,8.2352915 10.1085271,7.33809524 9.00620155,7.33809524 L9,7.34258122 C7.89767442,7.34258122 7,8.23678683 7,9.34332888 C7,10.440899 7.89767442,11.3380952 9,11.3380952 L9,11.3380952 Z" id="路径" fill="#FFFFFF"></path>
        </g>
    </g>
</svg>