<?xml version="1.0" encoding="UTF-8"?>
<svg width="232px" height="48px" viewBox="0 0 232 48" version="1.1" xmlns="http://www.w3.org/2000/svg" xmlns:xlink="http://www.w3.org/1999/xlink">
    <title>Logo</title>
    <g id="Logo" stroke="none" stroke-width="1" fill="none" fill-rule="evenodd">
        <g id="WhaleDAO" transform="translate(4.672533, 3.184000)" fill-rule="nonzero">
            <path d="M17.5794667,38.688 C19.2088,39.624 20.9074667,39.8493333 22.6754667,39.364 C23.0568,39.2946667 23.4208,39.156 23.7674667,38.948 C24.1141333,38.74 24.3914667,38.4973333 24.5994667,38.22 C25.1888,37.596 25.7434667,36.946 26.2634667,36.27 C26.7834667,35.594 27.2861333,34.9093333 27.7714667,34.216 C28.9848,32.344 30.2068,30.4806667 31.4374667,28.626 C32.6681333,26.7713333 33.8208,24.856 34.8954667,22.88 C35.6928,21.424 36.4814667,19.9766667 37.2614667,18.538 C38.0414667,17.0993333 38.8128,15.6346667 39.5754667,14.144 C39.9914667,13.3466667 40.3468,12.532 40.6414667,11.7 C40.9361333,10.868 41.2568,10.036 41.6034667,9.204 C42.0888,8.06 42.5048,6.89 42.8514667,5.694 C43.1981333,4.498 43.4581333,3.29333333 43.6314667,2.08 C43.7008,1.80266667 43.7181333,1.52533333 43.6834667,1.248 L43.6834667,1.248 L43.5794667,0.416 C43.5448,0.242666667 43.4234667,0.121333333 43.2154667,0.052 C43.0074667,-0.0173333333 42.8168,-0.0173333333 42.6434667,0.052 C42.5048,0.156 42.3661333,0.251333333 42.2274667,0.338 C42.0888,0.424666667 41.9501333,0.537333333 41.8114667,0.676 C38.8301333,6.396 35.8401333,11.752 32.8414667,16.744 C29.8428,21.736 26.8874667,26.1733333 23.9754667,30.056 L23.9754667,30.056 L24.8594667,24.856 L25.6394667,20.072 C25.8474667,18.8586667 26.0381333,17.6366667 26.2114667,16.406 C26.3848,15.1753333 26.5754667,13.9533333 26.7834667,12.74 L26.7834667,12.74 L28.0314667,5.096 C28.1354667,4.19466667 27.9101333,3.46666667 27.3554667,2.912 C26.9048,2.496 26.5061333,2.27933333 26.1594667,2.262 C25.8128,2.24466667 25.4314667,2.444 25.0154667,2.86 C23.5248,4.732 22.0774667,6.786 20.6734667,9.022 C19.2694667,11.258 17.8568,13.5893333 16.4354667,16.016 C15.0141333,18.4426667 13.5668,20.93 12.0934667,23.478 C10.6201333,26.026 9.08613333,28.5653333 7.49146667,31.096 C7.59546667,30.0213333 7.78613333,28.6866667 8.06346667,27.092 C8.3408,25.4973333 8.66146667,23.8593333 9.02546667,22.178 C9.38946667,20.4966667 9.7708,18.876 10.1694667,17.316 C10.5681333,15.756 10.9581333,14.456 11.3394667,13.416 C11.7901333,12.0986667 12.2668,10.8073333 12.7694667,9.542 C13.2721333,8.27666667 13.7661333,7.00266667 14.2514667,5.72 C14.4941333,5.16533333 14.7021333,4.61066667 14.8754667,4.056 C15.0488,3.50133333 15.2221333,2.92933333 15.3954667,2.34 C15.5688,1.68133333 15.3434667,1.17866667 14.7194667,0.832 C14.6154667,0.762666667 14.5028,0.693333333 14.3814667,0.624 C14.2601333,0.554666667 14.1301333,0.485333333 13.9914667,0.416 C13.5061333,0.173333333 13.1074667,0.225333333 12.7954667,0.572 C12.5181333,0.849333333 12.2408,1.10933333 11.9634667,1.352 C11.6861333,1.59466667 11.4261333,1.872 11.1834667,2.184 C10.5941333,3.016 9.98746667,3.848 9.36346667,4.68 C8.73946667,5.512 8.16746667,6.37866667 7.64746667,7.28 C6.4688,9.32533333 5.4808,11.414 4.68346667,13.546 C3.88613333,15.678 3.1408,17.836 2.44746667,20.02 C1.75413333,22.1 1.1648,24.1973333 0.679466667,26.312 C0.194133333,28.4266667 -0.0312,30.576 0.00346666667,32.76 C0.00346666667,34.0773333 0.2288,35.3426667 0.679466667,36.556 C0.887466667,37.284 1.22546667,37.8646667 1.69346667,38.298 C2.16146667,38.7313333 2.84613333,39.0346667 3.74746667,39.208 C4.26746667,39.312 4.7008,39.3813333 5.04746667,39.416 C5.39413333,39.4506667 5.7148,39.4333333 6.00946667,39.364 C6.30413333,39.2946667 6.58146667,39.1646667 6.84146667,38.974 C7.10146667,38.7833333 7.38746667,38.4973333 7.69946667,38.116 C7.83813333,37.9773333 7.9248,37.8733333 7.95946667,37.804 C9.1728,36.3133333 10.2821333,34.7706667 11.2874667,33.176 C12.2928,31.5813333 13.2374667,29.9693333 14.1214667,28.34 C15.0054667,26.7106667 15.8548,25.0466667 16.6694667,23.348 C17.4841333,21.6493333 18.3248,19.9333333 19.1914667,18.2 C18.2901333,20.9733333 17.6141333,23.842 17.1634667,26.806 C16.7128,29.77 16.4701333,33.0026667 16.4354667,36.504 C16.4008,36.9546667 16.4788,37.3706667 16.6694667,37.752 C16.8601333,38.1333333 17.1634667,38.4453333 17.5794667,38.688 Z M53.4768,38.09 C54.4128,38.4193333 55.3141333,38.5146667 56.1808,38.376 C56.0074667,37.7173333 56.0421333,36.946 56.2848,36.062 C56.5274667,35.178 56.8914667,34.2333333 57.3768,33.228 C57.8621333,32.2226667 58.4254667,31.1566667 59.0668,30.03 C59.7081333,28.9033333 60.3408,27.7333333 60.9648,26.52 C61.1381333,26.1386667 61.3114667,25.7833333 61.4848,25.454 L61.6581333,25.116 C61.7736889,24.8848889 61.8892444,24.6422222 62.0048,24.388 C62.3861333,23.3826667 62.4208,22.438 62.1088,21.554 C61.7968,20.67 61.2074667,19.9333333 60.3408,19.344 C59.7168,18.928 59.0928,18.8413333 58.4688,19.084 C57.4634667,19.4653333 56.4754667,19.942 55.5048,20.514 C54.5341333,21.086 53.5634667,21.71 52.5928,22.386 C51.6221333,23.062 50.6601333,23.7726667 49.7068,24.518 C48.7534667,25.2633333 47.7914667,25.9826667 46.8208,26.676 C47.2021333,25.4973333 47.7134667,24.1453333 48.3548,22.62 C48.9961333,21.0946667 49.7068,19.5346667 50.4868,17.94 C51.2668,16.3453333 52.0641333,14.8026667 52.8788,13.312 C53.6934667,11.8213333 54.4474667,10.504 55.1408,9.36 C55.3141333,9.048 55.4528,8.74466667 55.5568,8.45 C55.6608,8.15533333 55.7821333,7.86933333 55.9208,7.592 C56.1288,6.93333333 55.9034667,6.46533333 55.2448,6.188 C54.8634667,6.01466667 54.5774667,5.93666667 54.3868,5.954 C54.1961333,5.97133333 53.8928,6.01466667 53.4768,6.084 C52.4368,6.292 51.5441333,6.56066667 50.7988,6.89 C50.0534667,7.21933333 49.3948,7.63533333 48.8228,8.138 C48.2508,8.64066667 47.7394667,9.256 47.2888,9.984 C46.8381333,10.712 46.3528,11.5786667 45.8328,12.584 C44.0648,15.9813333 42.4614667,19.4046667 41.0228,22.854 C39.5841333,26.3033333 38.1888,29.8133333 36.8368,33.384 C36.7328,33.696 36.5941333,34.0686667 36.4208,34.502 C36.2474667,34.9353333 36.1521333,35.36 36.1348,35.776 C36.1174667,36.192 36.2041333,36.5386667 36.3948,36.816 C36.5854667,37.0933333 36.9928,37.2146667 37.6168,37.18 C38.9341333,37.3186667 39.9914667,37.2406667 40.7888,36.946 C41.5861333,36.6513333 42.3488,35.9493333 43.0768,34.84 C43.1808,34.6666667 43.3368,34.4153333 43.5448,34.086 C43.7528,33.7566667 43.9868,33.4273333 44.2468,33.098 C44.5068,32.7686667 44.7668,32.4566667 45.0268,32.162 C45.2868,31.8673333 45.5034667,31.668 45.6768,31.564 C46.3008,31.0786667 47.0548,30.498 47.9388,29.822 C48.8228,29.146 49.7241333,28.444 50.6428,27.716 C51.5614667,26.988 52.4454667,26.2686667 53.2948,25.558 C54.1441333,24.8473333 54.8634667,24.232 55.4528,23.712 C54.6901333,25.272 53.9361333,26.6673333 53.1908,27.898 C52.4454667,29.1286667 51.7261333,30.472 51.0328,31.928 C50.4434667,33.072 50.2181333,34.1986667 50.3568,35.308 C50.4261333,35.9666667 50.6688,36.4693333 51.0848,36.816 C51.7434667,37.336 52.5408,37.7606667 53.4768,38.09 Z M81.2101333,37.128 C82.0074667,37.4746667 82.6141333,37.3186667 83.0301333,36.66 L83.0301333,36.66 L82.3541333,35.828 C82.5274667,35.4466667 82.6748,35.048 82.7961333,34.632 C82.9174667,34.216 83.0821333,33.8173333 83.2901333,33.436 C83.8448,32.2226667 84.3734667,31.044 84.8761333,29.9 C85.3788,28.756 85.8901333,27.5946667 86.4101333,26.416 C86.9301333,25.2373333 87.4674667,24.0153333 88.0221333,22.75 C88.5768,21.4846667 89.1661333,20.1413333 89.7901333,18.72 C89.6514667,18.5466667 89.5301333,18.3733333 89.4261333,18.2 C89.3221333,18.0266667 89.2008,17.8706667 89.0621333,17.732 C88.6114667,17.2813333 88.2041333,17.0213333 87.8401333,16.952 C87.4761333,16.8826667 86.9994667,16.9866667 86.4101333,17.264 C86.0288,17.4373333 85.6388,17.6106667 85.2401333,17.784 C84.8414667,17.9573333 84.4168,18.148 83.9661333,18.356 L83.9661333,18.356 L82.5101333,17.524 C80.4648,16.3106667 78.2634667,15.964 75.9061333,16.484 C74.3114667,16.9 72.7861333,17.602 71.3301333,18.59 C69.8741333,19.578 68.6088,20.774 67.5341333,22.178 C66.4594667,23.582 65.6534667,25.142 65.1161333,26.858 C64.5788,28.574 64.4488,30.3506667 64.7261333,32.188 C65.0728,33.5053333 65.6881333,34.4933333 66.5721333,35.152 C67.4561333,35.8106667 68.5048,36.3826667 69.7181333,36.868 C70.4114667,37.18 71.0874667,37.2666667 71.7461333,37.128 C72.4048,36.9893333 73.0461333,36.7293333 73.6701333,36.348 C74.2941333,35.9666667 74.8921333,35.5246667 75.4641333,35.022 C76.0361333,34.5193333 76.5821333,34.06 77.1021333,33.644 C77.4834667,34.58 78.0381333,35.3166667 78.7661333,35.854 C79.4941333,36.3913333 80.3088,36.816 81.2101333,37.128 Z M69.9781333,34.528 C69.8048,32.968 70.0821333,31.356 70.8101333,29.692 C71.5381333,28.028 72.5174667,26.5113333 73.7481333,25.142 C74.9788,23.7726667 76.3481333,22.6546667 77.8561333,21.788 C79.3641333,20.9213333 80.8461333,20.5053333 82.3021333,20.54 C82.0248,21.164 81.6521333,21.9006667 81.1841333,22.75 C80.7161333,23.5993333 80.2134667,24.4573333 79.6761333,25.324 C79.1388,26.1906667 78.6188,27.014 78.1161333,27.794 C77.6134667,28.574 77.1888,29.2066667 76.8421333,29.692 C76.3914667,30.0733333 75.8974667,30.524 75.3601333,31.044 C74.8228,31.564 74.2594667,32.0666667 73.6701333,32.552 C73.0808,33.0373333 72.4741333,33.462 71.8501333,33.826 C71.2261333,34.19 70.6021333,34.424 69.9781333,34.528 Z M93.9154667,38.428 C94.8861333,38.4973333 95.8221333,38.48 96.7234667,38.376 C96.4114667,38.2373333 96.2381333,37.882 96.2034667,37.31 C96.1688,36.738 96.2121333,36.0966667 96.3334667,35.386 C96.4548,34.6753333 96.6281333,33.9473333 96.8534667,33.202 C97.0788,32.4566667 97.2954667,31.824 97.5034667,31.304 C98.2661333,29.0506667 99.0981333,26.8406667 99.9994667,24.674 C100.9008,22.5073333 101.828133,20.3493333 102.781467,18.2 C103.7348,16.0506667 104.714133,13.9013333 105.719467,11.752 C106.7248,9.60266667 107.7128,7.41866667 108.683467,5.2 C108.891467,4.40266667 108.614133,3.70933333 107.851467,3.12 C107.574133,2.912 107.383467,2.76466667 107.279467,2.678 C107.175467,2.59133333 106.898133,2.51333333 106.447467,2.444 C105.338133,3.588 104.194133,4.93133333 103.015467,6.474 C101.8368,8.01666667 100.6668,9.68933333 99.5054667,11.492 C98.3441333,13.2946667 97.2088,15.1753333 96.0994667,17.134 C94.9901333,19.0926667 93.9761333,21.06 93.0574667,23.036 C92.1388,25.012 91.3241333,26.9533333 90.6134667,28.86 C89.9028,30.7666667 89.3568,32.552 88.9754667,34.216 C88.8714667,35.152 89.0448,35.9146667 89.4954667,36.504 C89.9461333,37.0933333 90.5528,37.544 91.3154667,37.856 C92.0781333,38.168 92.9448,38.3586667 93.9154667,38.428 Z M110.4688,37.752 C111.855467,38.0293333 113.138133,38.09 114.3168,37.934 C115.495467,37.778 116.561467,37.4833333 117.5148,37.05 C118.468133,36.6166667 119.326133,36.0706667 120.0888,35.412 C120.851467,34.7533333 121.510133,34.06 122.0648,33.332 C122.1688,33.1933333 122.290133,32.9853333 122.4288,32.708 C122.567467,32.4306667 122.6628,32.1706667 122.7148,31.928 C122.7668,31.6853333 122.732133,31.4946667 122.6108,31.356 C122.489467,31.2173333 122.238133,31.2173333 121.8568,31.356 C121.163467,31.772 120.2448,32.2833333 119.1008,32.89 C117.9568,33.4966667 116.752133,34.008 115.4868,34.424 C114.221467,34.84 112.973467,35.1 111.7428,35.204 C110.512133,35.308 109.4808,35.0653333 108.6488,34.476 C108.683467,33.6786667 108.761467,32.8813333 108.8828,32.084 C109.004133,31.2866667 109.307467,30.4893333 109.7928,29.692 C110.971467,30.524 112.2368,31.07 113.5888,31.33 C114.9408,31.59 116.414133,31.2693333 118.0088,30.368 C119.291467,29.536 120.3748,28.5913333 121.2588,27.534 C122.1428,26.4766667 122.810133,25.2893333 123.2608,23.972 C123.711467,22.6546667 123.8068,21.3806667 123.5468,20.15 C123.2868,18.9193333 122.567467,17.784 121.3888,16.744 C120.175467,15.7386667 118.806133,15.2186667 117.2808,15.184 C115.755467,15.1493333 114.2648,15.444 112.8088,16.068 C111.734133,16.5186667 110.659467,17.1426667 109.5848,17.94 C108.510133,18.7373333 107.5048,19.656 106.5688,20.696 C105.6328,21.736 104.8268,22.854 104.1508,24.05 C103.4748,25.246 103.0068,26.4593333 102.7468,27.69 C102.4868,28.9206667 102.4868,30.1426667 102.7468,31.356 C103.0068,32.5693333 103.622133,33.696 104.5928,34.736 C106.118133,36.3306667 108.0768,37.336 110.4688,37.752 Z M112.4968,28.756 C112.219467,28.86 111.9248,28.86 111.6128,28.756 C111.3008,28.652 110.954133,28.392 110.5728,27.976 C111.543467,26.0693333 112.774133,24.388 114.2648,22.932 C115.755467,21.476 117.5928,20.2106667 119.7768,19.136 C119.603467,19.8986667 119.326133,20.6353333 118.9448,21.346 C118.563467,22.0566667 118.1128,22.75 117.5928,23.426 C117.0728,24.102 116.518133,24.7606667 115.9288,25.402 C115.339467,26.0433333 114.767467,26.6933333 114.2128,27.352 C113.9008,27.664 113.606133,27.95 113.3288,28.21 C113.051467,28.47 112.774133,28.652 112.4968,28.756 Z" id="Whale" fill="#000000"></path>
            <path d="M134.562133,39.754 C135.255467,39.7366667 135.8968,39.4853333 136.486133,39 C136.867467,38.7226667 137.257467,38.5233333 137.656133,38.402 C138.0548,38.2806667 138.479467,38.1853333 138.930133,38.116 C140.6288,37.8386667 142.2408,37.3966667 143.766133,36.79 C145.291467,36.1833333 146.7648,35.4466667 148.186133,34.58 C148.671467,34.3026667 149.122133,34.0166667 149.538133,33.722 C149.954133,33.4273333 150.387467,33.124 150.838133,32.812 C155.726133,29.3453333 159.4008,25.1506667 161.862133,20.228 C162.451467,19.1186667 162.902133,17.992 163.214133,16.848 C163.526133,15.704 163.699467,14.5253333 163.734133,13.312 C163.734133,11.7173333 163.3788,10.27 162.668133,8.97 C161.957467,7.67 160.943467,6.48266667 159.626133,5.408 C158.7248,4.68 157.7628,4.11666667 156.740133,3.718 C155.717467,3.31933333 154.582133,3.12 153.334133,3.12 C152.918133,3.12 152.519467,3.094 152.138133,3.042 C151.7568,2.99 151.3928,2.82533333 151.046133,2.548 C150.491467,2.09733333 149.9888,1.91533333 149.538133,2.002 C149.087467,2.08866667 148.671467,2.32266667 148.290133,2.704 C147.839467,3.08533333 147.3628,3.38866667 146.860133,3.614 C146.357467,3.83933333 145.811467,4.03866667 145.222133,4.212 C144.251467,4.48933333 143.367467,4.862 142.570133,5.33 C141.7728,5.798 141.027467,6.344 140.334133,6.968 C140.195467,7.10666667 140.0828,7.254 139.996133,7.41 C139.909467,7.566 139.831467,7.71333333 139.762133,7.852 C140.247467,8.476 140.854133,8.684 141.582133,8.476 C141.859467,8.40666667 142.145467,8.28533333 142.440133,8.112 C142.7348,7.93866667 143.107467,7.93866667 143.558133,8.112 C142.206133,10.2266667 140.9408,12.35 139.762133,14.482 C138.583467,16.614 137.491467,18.772 136.486133,20.956 C135.446133,23.2093333 134.605467,25.48 133.964133,27.768 C133.3228,30.056 132.655467,32.3266667 131.962133,34.58 C131.4768,34.8226667 130.991467,34.9873333 130.506133,35.074 C130.0208,35.1606667 129.5268,35.23 129.024133,35.282 C128.521467,35.334 128.0188,35.412 127.516133,35.516 C127.013467,35.62 126.5368,35.8106667 126.086133,36.088 C126.259467,36.2613333 126.389467,36.4346667 126.476133,36.608 C126.5628,36.7813333 126.6928,36.92 126.866133,37.024 C127.7328,37.5093333 128.582133,37.9253333 129.414133,38.272 C129.899467,38.48 130.4108,38.662 130.948133,38.818 C131.485467,38.974 132.014133,39.156 132.534133,39.364 C133.1928,39.6413333 133.8688,39.7713333 134.562133,39.754 Z M140.022133,31.876 C140.022133,31.1826667 140.1348,30.5413333 140.360133,29.952 C140.585467,29.3626667 140.7848,28.7733333 140.958133,28.184 C141.270133,27.2826667 141.686133,26.1993333 142.206133,24.934 C142.726133,23.6686667 143.3068,22.3166667 143.948133,20.878 C144.589467,19.4393333 145.2568,17.9746667 145.950133,16.484 C146.643467,14.9933333 147.319467,13.598 147.978133,12.298 C148.6368,10.998 149.2348,9.84533333 149.772133,8.84 C150.309467,7.83466667 150.751467,7.08933333 151.098133,6.604 C151.687467,6.43066667 152.268133,6.37866667 152.840133,6.448 C153.412133,6.51733333 153.9928,6.58666667 154.582133,6.656 C155.171467,6.76 155.752133,6.88133333 156.324133,7.02 C156.896133,7.15866667 157.4768,7.31466667 158.066133,7.488 C158.690133,7.66133333 159.0888,7.86933333 159.262133,8.112 C159.435467,8.35466667 159.487467,8.77066667 159.418133,9.36 C159.3488,9.74133333 159.288133,10.1053333 159.236133,10.452 C159.184133,10.7986667 159.0888,11.1453333 158.950133,11.492 C158.6728,12.1853333 158.3868,12.8786667 158.092133,13.572 C157.797467,14.2653333 157.459467,14.9413333 157.078133,15.6 C155.622133,17.992 153.949467,20.2453333 152.060133,22.36 C150.1708,24.4746667 148.030133,26.416 145.638133,28.184 C144.8408,28.7733333 144.052133,29.328 143.272133,29.848 C142.492133,30.368 141.703467,30.9053333 140.906133,31.46 C140.767467,31.564 140.4728,31.7026667 140.022133,31.876 Z M159.313411,39.9446667 L159.461467,39.936 C159.756133,39.9013333 160.068133,39.78 160.397467,39.572 C160.7268,39.364 161.1168,39.104 161.567467,38.792 C161.6368,38.7573333 161.7408,38.6706667 161.879467,38.532 C162.919467,37.7 163.890133,36.894 164.791467,36.114 C165.6928,35.334 166.585467,34.5453333 167.469467,33.748 C168.353467,32.9506667 169.237467,32.11 170.121467,31.226 C171.005467,30.342 171.9328,29.38 172.903467,28.34 C174.394133,28.548 175.893467,28.5133333 177.401467,28.236 C178.909467,27.9586667 180.4608,27.7506667 182.055467,27.612 L182.055467,27.612 L181.951467,28.756 L181.119467,35.204 C181.0848,35.5506667 181.0848,35.8973333 181.119467,36.244 L181.119467,36.244 L181.223467,37.284 C181.223467,37.908 181.570133,38.3933333 182.263467,38.74 C183.026133,39.1213333 183.8148,39.39 184.629467,39.546 C185.444133,39.702 186.302133,39.728 187.203467,39.624 C188.1048,39.52 188.607467,39.104 188.711467,38.376 C188.7808,38.0986667 188.8328,37.8126667 188.867467,37.518 C188.902133,37.2233333 188.9368,36.9373333 188.971467,36.66 C188.763467,31.356 189.1448,25.9653333 190.115467,20.488 C191.086133,15.0106667 192.3688,9.68933333 193.963467,4.524 C194.1368,3.93466667 194.076133,3.41466667 193.781467,2.964 C193.4868,2.51333333 193.0448,2.11466667 192.455467,1.768 C191.4848,1.248 190.739467,1.04 190.219467,1.144 C189.699467,1.248 189.179467,1.716 188.659467,2.548 C188.382133,2.92933333 188.174133,3.34533333 188.035467,3.796 C187.6888,4.732 187.2208,5.60733333 186.631467,6.422 C186.042133,7.23666667 185.4008,8.04266667 184.707467,8.84 C182.1768,11.544 179.663467,14.3346667 177.167467,17.212 C174.671467,20.0893333 172.1408,22.7413333 169.575467,25.168 C168.674133,24.9946667 167.7728,24.804 166.871467,24.596 C165.970133,24.388 164.999467,24.18 163.959467,23.972 C164.2368,24.388 164.505467,24.778 164.765467,25.142 C165.025467,25.506 165.294133,25.8266667 165.571467,26.104 C165.8488,26.3813333 166.169467,26.598 166.533467,26.754 C166.897467,26.91 167.322133,26.988 167.807467,26.988 C166.8368,28.3053333 165.7188,29.562 164.453467,30.758 C163.188133,31.954 162.0008,33.0633333 160.891467,34.086 C159.782133,35.1086667 158.8808,36.0273333 158.187467,36.842 C157.494133,37.6566667 157.251467,38.324 157.459467,38.844 C157.875467,39.26 158.239467,39.5546667 158.551467,39.728 C158.863467,39.9013333 159.1668,39.9706667 159.461467,39.936 L159.313411,39.9446667 Z M175.347467,25.22 C175.4168,25.116 175.642133,24.8213333 176.023467,24.336 C176.4048,23.8506667 176.881467,23.27 177.453467,22.594 C178.025467,21.918 178.658133,21.1726667 179.351467,20.358 C180.0448,19.5433333 180.729467,18.746 181.405467,17.966 C182.081467,17.186 182.7228,16.4493333 183.329467,15.756 C183.936133,15.0626667 184.447467,14.4906667 184.863467,14.04 C184.1008,16.2586667 183.5808,18.2346667 183.303467,19.968 C183.026133,21.7013333 182.7488,23.296 182.471467,24.752 C181.3968,24.9946667 180.218133,25.0986667 178.935467,25.064 C177.6528,25.0293333 176.4568,25.0813333 175.347467,25.22 Z M204.4328,39.936 C205.438133,40.0746667 206.339467,40.0486667 207.1368,39.858 C207.934133,39.6673333 208.731467,39.312 209.5288,38.792 C210.534133,37.9946667 211.513467,37.1886667 212.4668,36.374 C213.420133,35.5593333 214.347467,34.7013333 215.2488,33.8 C217.606133,31.304 219.4868,28.6086667 220.8908,25.714 C222.2948,22.8193333 223.343467,19.76 224.0368,16.536 C224.4528,14.4906667 224.591467,12.5146667 224.4528,10.608 C224.3488,9.63733333 224.106133,8.72733333 223.7248,7.878 C223.343467,7.02866667 222.771467,6.25733333 222.0088,5.564 C221.3848,4.97466667 220.7088,4.42 219.9808,3.9 C219.2528,3.38 218.490133,2.87733333 217.6928,2.392 C217.415467,2.25333333 217.1208,2.132 216.8088,2.028 C216.4968,1.924 216.202133,1.82 215.9248,1.716 C214.954133,1.47333333 214.122133,1.59466667 213.4288,2.08 C213.255467,2.184 213.082133,2.29666667 212.9088,2.418 C212.735467,2.53933333 212.5448,2.63466667 212.3368,2.704 C210.187467,3.60533333 208.272133,4.732 206.5908,6.084 C204.909467,7.436 203.358133,8.97866667 201.9368,10.712 C200.723467,12.2026667 199.640133,13.7713333 198.6868,15.418 C197.733467,17.0646667 196.910133,18.772 196.2168,20.54 C195.627467,22.1 195.0988,23.6253333 194.6308,25.116 C194.1628,26.6066667 193.998133,28.1146667 194.1368,29.64 C194.0328,31.3733333 194.284133,32.8293333 194.8908,34.008 C195.497467,35.1866667 196.3728,36.2613333 197.5168,37.232 C198.522133,38.064 199.605467,38.6706667 200.7668,39.052 C201.928133,39.4333333 203.150133,39.728 204.4328,39.936 Z M202.3528,36.816 C201.7288,35.9146667 201.3648,34.9786667 201.2608,34.008 C201.1568,32.8986667 201.139467,31.7893333 201.2088,30.68 C201.278133,29.5706667 201.451467,28.4613333 201.7288,27.352 C201.971467,26.4853333 202.214133,25.6273333 202.4568,24.778 C202.699467,23.9286667 202.959467,23.088 203.2368,22.256 C203.514133,21.3893333 203.8608,20.5573333 204.2768,19.76 C204.6928,18.9626667 205.143467,18.1826667 205.6288,17.42 C206.634133,15.964 207.6828,14.5513333 208.7748,13.182 C209.8668,11.8126667 211.071467,10.5213333 212.3888,9.308 C213.1168,8.684 213.8708,8.07733333 214.6508,7.488 C215.4308,6.89866667 216.2888,6.41333333 217.2248,6.032 L217.2248,6.032 L217.7968,5.876 C218.0048,5.876 218.1608,5.89333333 218.2648,5.928 C218.438133,6.20533333 218.507467,6.48266667 218.4728,6.76 C218.438133,7.03733333 218.403467,7.332 218.3688,7.644 C218.091467,9.55066667 217.658133,11.4053333 217.0688,13.208 C216.479467,15.0106667 215.7688,16.796 214.9368,18.564 C214.382133,19.7773333 213.810133,20.9733333 213.2208,22.152 C212.631467,23.3306667 212.007467,24.5093333 211.3488,25.688 C210.7248,26.7973333 210.083467,27.8633333 209.4248,28.886 C208.766133,29.9086667 208.055467,30.9226667 207.2928,31.928 C206.807467,32.5866667 206.296133,33.2193333 205.7588,33.826 C205.221467,34.4326667 204.675467,35.0306667 204.1208,35.62 C203.843467,35.8626667 203.592133,36.1053333 203.3668,36.348 C203.141467,36.5906667 202.803467,36.7466667 202.3528,36.816 Z" id="DAO" fill="#F24088"></path>
        </g>
    </g>
</svg>